<?xml version="1.0" encoding="UTF-8" standalone="no"?>
<!DOCTYPE svg PUBLIC "-//W3C//DTD SVG 1.1//EN" "http://www.w3.org/Graphics/SVG/1.1/DTD/svg11.dtd">
<svg width="100%" height="100%" viewBox="0 0 500 250" version="1.1" xmlns="http://www.w3.org/2000/svg" xmlns:xlink="http://www.w3.org/1999/xlink" xml:space="preserve" xmlns:serif="http://www.serif.com/" style="fill-rule:evenodd;clip-rule:evenodd;stroke-linecap:round;stroke-linejoin:round;stroke-miterlimit:1.5;">
    <g transform="matrix(1,0,0,1,-550,-325)">
        <g transform="matrix(1,0,0,1,173.75,-7.27912)">
            <g transform="matrix(1,0,0,1,49.7841,-2.39863)">
                <g transform="matrix(1,0,0,1,-3.42067,2)">
                    <g transform="matrix(1,0,0,1,-49.6134,8.17774)">
                        <path d="M700,469L700,492C700,499.732 706.268,506 714,506C714,506 714,506 714,506L714,524.5L714,506L714,506C721.732,506 728,499.732 728,492C728,481.525 728,469 728,469" style="fill:none;stroke:white;stroke-width:13px;"/>
                    </g>
                    <g transform="matrix(1,0,0,1,-49.7841,8.17774)">
                        <path d="M732.421,501C730.589,504.739 727.652,507.839 724.038,509.875C721.862,511.117 720.52,513.431 720.52,515.936C720.5,517.326 720.5,518.5 720.5,518.5L707.5,518.5L707.5,515.936C707.5,513.424 706.153,511.104 703.972,509.858C700.348,507.839 697.411,504.739 695.579,501L732.421,501Z" style="fill:white;"/>
                    </g>
                </g>
                <g transform="matrix(0.484499,-0.484499,0.44344,0.44344,-7.7512,688.636)">
                    <path d="M833,479.5L860,479.5C860,463.208 847.912,450 833,450C818.098,450 806,463.219 806,479.5C806,495.792 818.088,509 833,509L844.184,509" style="fill:none;stroke:white;stroke-width:19.79px;"/>
                </g>
                <g transform="matrix(1,0,0,1,-51.0341,11.1777)">
                    <path d="M594,505L594,481.5C594,474.044 600.044,468 607.5,468C607.5,468 607.5,468 607.5,468C614.956,468 621,474.044 621,481.5C621,492.072 621,505 621,505" style="fill:none;stroke:white;stroke-width:13px;"/>
                </g>
                <g transform="matrix(2.11429,0,0,1.5102,-576.463,-220.047)">
                    <path d="M520,474.025C520,467.94 516.471,463 512.125,463L510.375,463C506.029,463 502.5,467.94 502.5,474.025L502.5,476.475C502.5,482.56 506.029,487.5 510.375,487.5L512.125,487.5C516.471,487.5 520,482.56 520,476.475L520,474.025Z" style="fill:none;stroke:white;stroke-width:7.1px;"/>
                </g>
            </g>
            <g transform="matrix(1,0,0,1,49.7341,8.16137)">
                <g transform="matrix(1,0,0,1,105.721,-99.56)">
                    <g transform="matrix(1,0,0,1,-49.7841,8.17774)">
                        <path d="M700,469L700,492C700,499.732 706.268,506 714,506C714,506 714,506 714,506L714,524.5L714,506L714,506C721.732,506 728,499.732 728,492C728,481.525 728,469 728,469" style="fill:none;stroke:white;stroke-width:13px;"/>
                    </g>
                    <g transform="matrix(1,0,0,1,-49.7841,8.17774)">
                        <path d="M732.421,501C730.589,504.739 727.652,507.839 724.038,509.875C721.862,511.117 720.52,513.431 720.52,515.936C720.5,517.326 720.5,518.5 720.5,518.5L707.5,518.5L707.5,515.936C707.5,513.424 706.153,511.104 703.972,509.858C700.348,507.839 697.411,504.739 695.579,501L732.421,501Z" style="fill:white;"/>
                    </g>
                </g>
                <g transform="matrix(1,0,0,1,115.016,-90.3823)">
                    <path d="M594,505L594,481.5C594,474.044 600.044,468 607.5,468C607.5,468 607.5,468 607.5,468C614.956,468 621,474.044 621,481.5C621,492.072 621,505 621,505" style="fill:none;stroke:white;stroke-width:13px;"/>
                </g>
                <g transform="matrix(2.11429,0,0,1.5102,-410.413,-321.66)">
                    <path d="M520,474.025C520,467.94 516.471,463 512.125,463L510.375,463C506.029,463 502.5,467.94 502.5,474.025L502.5,476.475C502.5,482.56 506.029,487.5 510.375,487.5L512.125,487.5C516.471,487.5 520,482.56 520,476.475L520,474.025Z" style="fill:none;stroke:white;stroke-width:7.1px;"/>
                </g>
                <g transform="matrix(1,0,0,1,-17.2341,-90.8823)">
                    <path d="M595.25,505.5L595.25,482C595.25,474.544 601.294,468.5 608.75,468.5C608.75,468.5 608.75,468.5 608.75,468.5C616.206,468.5 622.25,474.544 622.25,482C622.25,492.572 622.25,505.5 622.25,505.5L622.25,482C622.25,474.544 628.294,468.5 635.75,468.5C635.75,468.5 635.75,468.5 635.75,468.5C643.206,468.5 649.25,474.544 649.25,482C649.25,492.572 649.25,505.5 649.25,505.5" style="fill:none;stroke:white;stroke-width:13px;"/>
                </g>
                <path d="M564.516,379.81C564.516,382.769 562.424,385.316 559.522,385.891C553.457,386.957 549.516,390.217 549.516,395.639L549.516,414.618C549.516,418.208 546.606,421.118 543.016,421.118C543.016,421.118 543.016,421.118 543.016,421.118C539.426,421.118 536.516,418.208 536.516,414.618L536.516,376.818C536.516,375.306 537.116,373.856 538.185,372.787C539.254,371.718 540.704,371.118 542.216,371.118C542.747,371.118 543.285,371.118 543.816,371.118C545.328,371.118 546.777,371.718 547.846,372.787C548.915,373.856 549.516,375.306 549.516,376.818C549.516,377.587 549.516,378.118 549.516,378.118C551.195,375.331 553.315,373.521 556.028,372.441C557.924,371.682 560.073,371.912 561.765,373.057C563.456,374.202 564.469,376.111 564.469,378.153C564.516,378.709 564.516,379.266 564.516,379.81Z" style="fill:white;fill-rule:nonzero;"/>
                <g transform="matrix(1.42308,0,0,1.68182,-507.292,-216.064)">
                    <path d="M724,375L724,364C724,357.925 718.18,353 711,353L710.999,353C707.551,353 704.245,354.159 701.807,356.221C699.369,358.284 698,361.082 698,363.999L698,364.001C698,370.076 703.82,375 710.999,375C711.867,375 712.405,375 712.405,375" style="fill:none;stroke:white;stroke-width:8.34px;"/>
                </g>
            </g>
            <g transform="matrix(0.866025,-0.5,0.5,0.866025,-206.372,474.271)">
                <g transform="matrix(1.1547,0,0,1.20651,-182.476,-166.574)">
                    <path d="M869.486,557.819C870.825,557.079 872.476,557.079 873.816,557.819C877.424,559.813 884.627,563.793 888.236,565.787C889.575,566.528 890.401,567.896 890.401,569.376L890.401,585.312C890.401,586.792 889.575,588.16 888.236,588.901C884.627,590.895 877.424,594.875 873.816,596.869C872.476,597.609 870.825,597.609 869.486,596.869C865.877,594.875 858.674,590.895 855.066,588.901C853.726,588.16 852.901,586.792 852.901,585.312L852.901,569.376C852.901,567.896 853.726,566.528 855.066,565.787C858.674,563.793 865.877,559.813 869.486,557.819Z" style="fill:white;"/>
                </g>
                <g transform="matrix(1.1547,0,0,1.20651,-130.515,-166.574)">
                    <path d="M869.486,557.819C870.825,557.079 872.476,557.079 873.816,557.819C877.424,559.813 884.627,563.793 888.236,565.787C889.575,566.528 890.401,567.896 890.401,569.376L890.401,585.312C890.401,586.792 889.575,588.16 888.236,588.901C884.627,590.895 877.424,594.875 873.816,596.869C872.476,597.609 870.825,597.609 869.486,596.869C865.877,594.875 858.674,590.895 855.066,588.901C853.726,588.16 852.901,586.792 852.901,585.312L852.901,569.376C852.901,567.896 853.726,566.528 855.066,565.787C858.674,563.793 865.877,559.813 869.486,557.819Z" style="fill:white;"/>
                </g>
                <g transform="matrix(1.1547,0,0,1.20651,-156.495,-211.574)">
                    <path d="M869.486,557.819C870.825,557.079 872.476,557.079 873.816,557.819C877.424,559.813 884.627,563.793 888.236,565.787C889.575,566.528 890.401,567.896 890.401,569.376L890.401,585.312C890.401,586.792 889.575,588.16 888.236,588.901C884.627,590.895 877.424,594.875 873.816,596.869C872.476,597.609 870.825,597.609 869.486,596.869C865.877,594.875 858.674,590.895 855.066,588.901C853.726,588.16 852.901,586.792 852.901,585.312L852.901,569.376C852.901,567.896 853.726,566.528 855.066,565.787C858.674,563.793 865.877,559.813 869.486,557.819Z" style="fill:white;"/>
                </g>
            </g>
            <g transform="matrix(1,0,0,1,-0.25,0)">
                <g transform="matrix(1,0,0,1,-4.0986,0)">
                    <path d="M504.099,530L504.099,370L504.099,433.333C504.099,437.753 502.343,441.993 499.217,445.118C496.091,448.244 491.852,450 487.432,450C479.115,450 469.082,450 460.766,450C456.345,450 452.106,448.244 448.98,445.118C445.855,441.993 444.099,437.753 444.099,433.333C444.099,409.888 444.099,370 444.099,370L444.099,530L444.099,466.667C444.099,462.247 445.855,458.007 448.98,454.882C452.106,451.756 456.345,450 460.766,450C469.082,450 479.115,450 487.432,450C491.852,450 496.091,451.756 499.217,454.882C502.343,458.007 504.099,462.247 504.099,466.667C504.099,490.112 504.099,530 504.099,530Z" style="fill:none;stroke:white;stroke-width:21px;"/>
                </g>
                <g transform="matrix(1.66524,0,0,3.61018,-245.754,-1145.1)">
                    <rect x="405.5" y="430" width="12.611" height="24.929" style="fill:white;"/>
                </g>
                <g transform="matrix(1.66524,0,0,3.61018,-185.754,-1145.1)">
                    <rect x="405.5" y="430" width="12.611" height="24.929" style="fill:white;"/>
                </g>
                <g transform="matrix(0.749813,0,0,0.768558,129.945,90.7265)">
                    <ellipse cx="397.505" cy="571.555" rx="30.007" ry="29.276" style="fill:white;"/>
                </g>
                <g transform="matrix(0.749813,0,0,0.768558,189.945,90.7265)">
                    <ellipse cx="397.505" cy="571.555" rx="30.007" ry="29.276" style="fill:white;"/>
                </g>
                <g transform="matrix(0.349913,0,0,0.358661,300.908,165.112)">
                    <ellipse cx="397.505" cy="571.555" rx="30.007" ry="29.276" style="fill:white;"/>
                </g>
            </g>
        </g>
    </g>
</svg>
