<?xml version="1.0" encoding="UTF-8" standalone="no"?>
<!DOCTYPE svg PUBLIC "-//W3C//DTD SVG 1.1//EN" "http://www.w3.org/Graphics/SVG/1.1/DTD/svg11.dtd">
<svg width="100%" height="100%" viewBox="0 0 100 100" version="1.1" xmlns="http://www.w3.org/2000/svg" xmlns:xlink="http://www.w3.org/1999/xlink" xml:space="preserve" xmlns:serif="http://www.serif.com/" style="fill-rule:evenodd;clip-rule:evenodd;stroke-linejoin:round;stroke-miterlimit:2;">
    <g transform="matrix(0.565685,0.565685,-0.565685,0.565685,30.201,-25.1342)">
        <path d="M68,33L43,33C36.37,33 30.011,35.634 25.322,40.322C20.634,45.011 18,51.37 18,58L18,58C18,64.63 20.634,70.989 25.322,75.678C30.011,80.366 36.37,83 43,83L118,83L118,8C118,1.37 115.366,-4.989 110.678,-9.678C105.989,-14.366 99.63,-17 93,-17C93,-17 93,-17 93,-17C79.193,-17 68,-5.807 68,8C68,20.5 68,33 68,33Z" style="fill:white;"/>
    </g>
</svg>
