<?xml version="1.0" encoding="UTF-8" standalone="no"?>
<!DOCTYPE svg PUBLIC "-//W3C//DTD SVG 1.1//EN" "http://www.w3.org/Graphics/SVG/1.1/DTD/svg11.dtd">
<svg width="100%" height="100%" viewBox="0 0 500 300" version="1.1" xmlns="http://www.w3.org/2000/svg" xmlns:xlink="http://www.w3.org/1999/xlink" xml:space="preserve" xmlns:serif="http://www.serif.com/" style="fill-rule:evenodd;clip-rule:evenodd;stroke-linecap:round;stroke-linejoin:round;stroke-miterlimit:1.5;">
    <g transform="matrix(1,0,0,1,-250,-350)">
        <g transform="matrix(1,0,0,1,300,5.68434e-14)">
            <g transform="matrix(1,0,0,1,133.333,100)">
                <path d="M150,500C150,500 157.465,470.139 162.403,450.387C165.235,439.061 166.667,427.43 166.667,415.755L166.667,300" style="fill:none;stroke:rgb(151,154,173);stroke-width:33.33px;"/>
            </g>
            <path d="M283.333,600C283.333,600 290.339,571.979 295.266,552.27C298.048,541.141 308.048,533.333 319.519,533.333C332.861,533.333 350.473,533.333 363.814,533.333C375.286,533.333 385.285,541.141 388.067,552.27C392.995,571.979 400,600 400,600" style="fill:none;stroke:rgb(151,154,173);stroke-width:33.33px;"/>
            <g transform="matrix(1,0,0,1,133.333,100)">
                <path d="M166.667,388.667C166.667,376.516 176.516,366.667 188.667,366.667L216.5,366.667C225.385,366.667 233.906,370.196 240.188,376.479C246.471,382.761 250,391.282 250,400.167L250,411.333C250,423.484 240.15,433.333 228,433.333L188.667,433.333C176.516,433.333 166.667,423.484 166.667,411.333L166.667,388.667Z" style="fill:none;stroke:rgb(151,154,173);stroke-width:33.33px;"/>
            </g>
            <path d="M333.333,466.667L319,466.667C313.961,466.667 309.128,464.665 305.565,461.102C302.002,457.538 300,452.706 300,447.667C300,433.527 300,416.667 300,416.667" style="fill:none;stroke:rgb(151,154,173);stroke-width:33.33px;"/>
        </g>
        <g transform="matrix(0.967742,0,0,0.909091,9.67742,-36.3636)">
            <path d="M610,480L300,480L300,579C300,581.917 301.089,584.715 303.027,586.778C304.964,588.841 307.593,590 310.333,590L599.667,590C602.407,590 605.036,588.841 606.973,586.778C608.911,584.715 610,581.917 610,579L610,480Z" style="fill:rgb(255,165,40);"/>
        </g>
        <g transform="matrix(1.02151,0,0,0.30303,60.2151,371.212)">
            <path d="M610,513C610,504.248 608.969,495.854 607.133,489.665C605.297,483.477 602.807,480 600.211,480C547.517,480 300,480 300,480L300,590L600.211,590C602.807,590 605.297,586.523 607.133,580.335C608.969,574.146 610,565.752 610,557C610,543.083 610,526.917 610,513Z" style="fill:rgb(255,165,40);"/>
        </g>
        <g transform="matrix(0.268817,2.0374e-16,0,0.30303,219.355,371.212)">
            <path d="M610,513C610,504.248 606.081,495.854 599.104,489.665C592.128,483.477 582.666,480 572.8,480C513.166,480 396.834,480 337.2,480C327.334,480 317.872,483.477 310.896,489.665C303.919,495.854 300,504.248 300,513C300,526.917 300,543.083 300,557C300,565.752 303.919,574.146 310.896,580.335C317.872,586.523 327.334,590 337.2,590C396.834,590 513.166,590 572.8,590C582.666,590 592.128,586.523 599.104,580.335C606.081,574.146 610,565.752 610,557C610,543.083 610,526.917 610,513Z" style="fill:rgb(255,165,40);"/>
        </g>
        <g transform="matrix(1.25442,0,0,1.06744,-173.562,-2.73913)">
            <ellipse cx="497.09" cy="377.295" rx="119.577" ry="15.614" style="fill:rgb(255,165,40);"/>
        </g>
        <g>
            <g transform="matrix(1,0,0,1,133.333,100)">
                <path d="M150,500C150,500 157.465,470.139 162.403,450.387C165.235,439.061 166.667,427.43 166.667,415.755L166.667,300" style="fill:none;stroke:rgb(151,154,173);stroke-width:33.33px;"/>
            </g>
            <path d="M283.333,600C283.333,600 290.339,571.979 295.266,552.27C298.048,541.141 308.048,533.333 319.519,533.333C332.861,533.333 350.473,533.333 363.814,533.333C375.286,533.333 385.285,541.141 388.067,552.27C392.995,571.979 400,600 400,600" style="fill:none;stroke:rgb(151,154,173);stroke-width:33.33px;"/>
            <g transform="matrix(1,0,0,1,133.333,100)">
                <path d="M166.667,388.667C166.667,376.516 176.516,366.667 188.667,366.667L216.5,366.667C225.385,366.667 233.906,370.196 240.188,376.479C246.471,382.761 250,391.282 250,400.167L250,411.333C250,423.484 240.15,433.333 228,433.333L188.667,433.333C176.516,433.333 166.667,423.484 166.667,411.333L166.667,388.667Z" style="fill:none;stroke:rgb(151,154,173);stroke-width:33.33px;"/>
            </g>
            <path d="M333.333,466.667L319,466.667C313.961,466.667 309.128,464.665 305.565,461.102C302.002,457.538 300,452.706 300,447.667C300,433.527 300,416.667 300,416.667" style="fill:none;stroke:rgb(151,154,173);stroke-width:33.33px;"/>
        </g>
    </g>
</svg>
