<?xml version="1.0" encoding="UTF-8" standalone="no"?>
<!DOCTYPE svg PUBLIC "-//W3C//DTD SVG 1.1//EN" "http://www.w3.org/Graphics/SVG/1.1/DTD/svg11.dtd">
<svg width="100%" height="100%" viewBox="0 0 400 200" version="1.1" xmlns="http://www.w3.org/2000/svg" xmlns:xlink="http://www.w3.org/1999/xlink" xml:space="preserve" xmlns:serif="http://www.serif.com/" style="fill-rule:evenodd;clip-rule:evenodd;stroke-linejoin:round;stroke-miterlimit:2;">
    <g transform="matrix(1,0,0,1,-200,-400)">
        <g transform="matrix(2,0,0,2,-200,-400)">
            <path d="M300,450C300,422.404 277.596,400 250,400C222.404,400 200,422.404 200,450L200,550C200,577.596 222.404,600 250,600C277.596,600 300,577.596 300,550L300,450ZM275,450L275,550C275,563.798 263.798,575 250,575C236.202,575 225,563.798 225,550L225,450C225,436.202 236.202,425 250,425C263.798,425 275,436.202 275,450Z" style="fill:white;"/>
        </g>
        <g transform="matrix(2,0,0,1.93387,0,-333.548)">
            <path d="M300,451.71C300,423.17 277.596,400 250,400C222.404,400 200,423.17 200,451.71L200,548.29C200,576.83 222.404,600 250,600C277.596,600 300,576.83 300,548.29L300,451.71ZM275,451.71L275,548.29C275,562.56 263.798,574.145 250,574.145C236.202,574.145 225,562.56 225,548.29L225,451.71C225,437.44 236.202,425.855 250,425.855C263.798,425.855 275,437.44 275,451.71Z" style="fill:white;"/>
        </g>
        <g transform="matrix(2,0,0,2,200,-400)">
            <path d="M300,450C300,422.404 277.596,400 250,400C222.404,400 200,422.404 200,450L200,550C200,577.596 222.404,600 250,600C277.596,600 300,577.596 300,550L300,450ZM275,450L275,550C275,563.798 263.798,575 250,575C236.202,575 225,563.798 225,550L225,450C225,436.202 236.202,425 250,425C263.798,425 275,436.202 275,450Z" style="fill:white;"/>
        </g>
    </g>
</svg>
