<?xml version="1.0" encoding="UTF-8" standalone="no"?>
<!DOCTYPE svg PUBLIC "-//W3C//DTD SVG 1.1//EN" "http://www.w3.org/Graphics/SVG/1.1/DTD/svg11.dtd">
<svg width="100%" height="100%" viewBox="0 0 200 500" version="1.1" xmlns="http://www.w3.org/2000/svg" xmlns:xlink="http://www.w3.org/1999/xlink" xml:space="preserve" xmlns:serif="http://www.serif.com/" style="fill-rule:evenodd;clip-rule:evenodd;stroke-linejoin:round;stroke-miterlimit:2;">
    <g transform="matrix(1,0,0,1,-400,-200)">
        <g transform="matrix(0.5,0,0,0.5,250,350)">
            <path d="M595.259,684.196C596.374,687.913 595.666,691.938 593.349,695.052C591.033,698.165 587.381,700 583.5,700C545.882,700 454.118,700 416.5,700C412.619,700 408.967,698.165 406.651,695.052C404.334,691.938 403.626,687.913 404.741,684.196C413.5,654.999 432.533,591.557 445.799,547.338C455.216,515.947 460,483.35 460,450.578L460,53.742C460,42.47 469.137,33.333 480.408,33.333C492.425,33.333 507.575,33.333 519.592,33.333C530.863,33.333 540,42.47 540,53.742C540,122.872 540,349.505 540,450.578C540,483.35 544.784,515.947 554.201,547.338C567.467,591.557 586.5,654.999 595.259,684.196Z" style="fill:rgb(98,93,125);"/>
        </g>
        <g transform="matrix(0.909091,0,0,0.909091,95.4545,124.848)">
            <path d="M518.333,156L371.667,156C371.667,156 395.329,226.986 404.636,254.909C406.844,261.532 413.043,266 420.024,266C433.721,266 456.279,266 469.976,266C476.957,266 483.156,261.532 485.364,254.909C494.671,226.986 518.333,156 518.333,156Z" style="fill:rgb(255,250,190);"/>
        </g>
        <g transform="matrix(0.909091,0,0,0.909091,95.4545,124.848)">
            <path d="M522.235,156C524.968,156 527.467,154.456 528.689,152.011C529.911,149.567 529.648,146.641 528.008,144.455C516.712,129.394 497.25,103.444 487.537,90.493C483.841,85.566 478.042,82.667 471.883,82.667C457.849,82.667 432.151,82.667 418.117,82.667C411.958,82.667 406.159,85.566 402.463,90.493C392.75,103.444 373.288,129.394 361.992,144.455C360.352,146.641 360.089,149.567 361.311,152.011C362.533,154.456 365.032,156 367.765,156C402.03,156 487.97,156 522.235,156Z" style="fill:rgb(98,93,125);"/>
        </g>
        <g transform="matrix(1,0,0,0.5,0,183.333)">
            <path d="M566.667,450C566.667,440.801 562.933,433.333 558.333,433.333L441.667,433.333C437.067,433.333 433.333,440.801 433.333,450C433.333,459.199 437.067,466.667 441.667,466.667L558.333,466.667C562.933,466.667 566.667,459.199 566.667,450Z" style="fill:rgb(98,93,125);"/>
        </g>
    </g>
</svg>
