<?xml version="1.0" encoding="UTF-8" standalone="no"?>
<!DOCTYPE svg PUBLIC "-//W3C//DTD SVG 1.1//EN" "http://www.w3.org/Graphics/SVG/1.1/DTD/svg11.dtd">
<svg width="100%" height="100%" viewBox="0 0 500 800" version="1.1" xmlns="http://www.w3.org/2000/svg" xmlns:xlink="http://www.w3.org/1999/xlink" xml:space="preserve" xmlns:serif="http://www.serif.com/" style="fill-rule:evenodd;clip-rule:evenodd;stroke-linecap:round;stroke-linejoin:round;stroke-miterlimit:1.5;">
    <g transform="matrix(1,0,0,1,-250,-100)">
        <g transform="matrix(1,0,0,1,-2.95586e-12,-50)">
            <path d="M500,800L500,725C500,705.109 507.902,686.032 521.967,671.967C536.032,657.902 555.109,650 575,650L575,650C616.421,650 650,616.421 650,575C650,518.241 650,450 650,450" style="fill:none;stroke:rgb(0,255,101);stroke-width:100px;"/>
        </g>
        <g transform="matrix(1,0,0,1,-2.95586e-12,-50)">
            <path d="M500,450C500,450 500,518.363 500,575.152C500,616.489 533.511,650 574.848,650L574.85,650C616.354,650 650,616.354 650,574.85L650,450" style="fill:none;stroke:rgb(0,255,101);stroke-width:100px;"/>
        </g>
        <g transform="matrix(1,0,0,1,-3.63798e-12,-200)">
            <path d="M500,850L500,724.848C500,683.511 466.489,650 425.152,650L425.15,650C383.646,650 350,616.354 350,574.85L350,450" style="fill:none;stroke:rgb(0,255,101);stroke-width:100px;"/>
        </g>
        <g transform="matrix(1,0,0,1,-150,-200)">
            <path d="M500,450C500,450 500,518.243 500,575.002C500,594.893 507.902,613.969 521.966,628.034C536.031,642.098 555.107,650 574.998,650L575,650C594.891,650 613.968,642.098 628.033,628.033C642.098,613.968 650,594.891 650,575L650,450" style="fill:none;stroke:rgb(0,255,101);stroke-width:100px;"/>
        </g>
        <g transform="matrix(1,0,0,1,-3.29692e-12,-100)">
            <path d="M500,950L500,250" style="fill:none;stroke:rgb(0,255,101);stroke-width:100px;"/>
        </g>
    </g>
</svg>
