<?xml version="1.0" encoding="UTF-8" standalone="no"?>
<!DOCTYPE svg PUBLIC "-//W3C//DTD SVG 1.1//EN" "http://www.w3.org/Graphics/SVG/1.1/DTD/svg11.dtd">
<svg width="100%" height="100%" viewBox="0 0 400 700" version="1.1" xmlns="http://www.w3.org/2000/svg" xmlns:xlink="http://www.w3.org/1999/xlink" xml:space="preserve" xmlns:serif="http://www.serif.com/" style="fill-rule:evenodd;clip-rule:evenodd;stroke-linejoin:round;stroke-miterlimit:2;">
    <g transform="matrix(1,0,0,1,-300,-200)">
        <g transform="matrix(0.833333,0,0,1.15385,150,103.846)">
            <ellipse cx="420" cy="560" rx="180" ry="130" style="fill:white;"/>
        </g>
        <g transform="matrix(0.666667,0,0,0.923077,220,43.0769)">
            <ellipse cx="420" cy="560" rx="180" ry="130" style="fill:white;"/>
        </g>
        <g transform="matrix(0.5,0,0,0.692308,290,12.3077)">
            <ellipse cx="420" cy="560" rx="180" ry="130" style="fill:white;"/>
        </g>
        <g transform="matrix(2.72144e-17,-0.444444,1.09091,6.67989e-17,-20.9091,534.444)">
            <path d="M251.656,346.073C250.713,342.616 243.54,340 235.001,340C235,340 235,340 234.999,340C226.46,340 219.287,342.616 218.344,346.073C213.948,362.19 201.855,406.53 194.969,431.78C193.704,436.418 197.348,441.057 204.988,444.535C212.628,448.012 223.542,450 234.998,450L235.002,450C246.458,450 257.372,448.012 265.012,444.535C272.652,441.057 276.296,436.418 275.031,431.78C268.145,406.53 256.052,362.19 251.656,346.073Z" style="fill:rgb(255,166,0);"/>
        </g>
        <g transform="matrix(2.29705,0,0,2,-429.908,-300)">
            <path d="M383.06,337.5C383.06,333.361 380.134,330 376.53,330C372.926,330 370,333.361 370,337.5L370,342.5C370,346.639 372.926,350 376.53,350C380.134,350 383.06,346.639 383.06,342.5L383.06,337.5Z"/>
        </g>
        <g transform="matrix(2.29705,0,0,2,-369.908,-300)">
            <path d="M383.06,337.5C383.06,333.361 380.134,330 376.53,330C372.926,330 370,333.361 370,337.5L370,342.5C370,346.639 372.926,350 376.53,350C380.134,350 383.06,346.639 383.06,342.5L383.06,337.5Z"/>
        </g>
        <g transform="matrix(1.17077,0,0,0.866927,-103.679,39.1979)">
            <path d="M490,537.302C490,527.753 484.259,520 477.188,520C470.117,520 464.376,527.753 464.376,537.302C464.376,546.852 470.117,554.605 477.188,554.605C484.259,554.605 490,546.852 490,537.302Z"/>
        </g>
        <g transform="matrix(1.17077,0,0,0.866927,-113.679,89.1979)">
            <path d="M490,537.302C490,527.753 484.259,520 477.188,520C470.117,520 464.376,527.753 464.376,537.302C464.376,546.852 470.117,554.605 477.188,554.605C484.259,554.605 490,546.852 490,537.302Z"/>
        </g>
        <g transform="matrix(1.17077,0,0,0.866927,-103.679,139.198)">
            <path d="M490,537.302C490,527.753 484.259,520 477.188,520C470.117,520 464.376,527.753 464.376,537.302C464.376,546.852 470.117,554.605 477.188,554.605C484.259,554.605 490,546.852 490,537.302Z"/>
        </g>
        <g transform="matrix(1,0,0,1.18303,30,-64.0604)">
            <path d="M570,307.736C570,298.768 565.786,290.168 558.284,283.827C550.783,277.486 540.609,273.924 530,273.924C498.16,273.924 454.938,273.924 430,273.924C418.954,273.924 410,281.493 410,290.83L410,333.094C410,342.431 418.954,350 430,350L550,350C561.046,350 570,342.431 570,333.094L570,307.736Z" style="fill:rgb(216,106,141);"/>
        </g>
        <g transform="matrix(0.4375,0,0,0.920134,350.625,77.953)">
            <path d="M570,292.943C570,282.446 552.077,273.924 530,273.924L450,273.924C427.923,273.924 410,282.446 410,292.943L410,330.981C410,341.478 427.923,350 450,350L530,350C552.077,350 570,341.478 570,330.981L570,292.943Z" style="fill:rgb(255,200,188);"/>
        </g>
        <g transform="matrix(0.375,0,0,0.920134,386.25,67.953)">
            <path d="M570,290.226C570,281.229 552.077,273.924 530,273.924L450,273.924C427.923,273.924 410,281.229 410,290.226L410,333.698C410,342.695 427.923,350 450,350L530,350C552.077,350 570,342.695 570,333.698L570,290.226Z" style="fill:rgb(216,106,141);"/>
        </g>
        <g transform="matrix(0.625,0,0,0.788687,153.75,73.9597)">
            <path d="M570,292.943C570,282.446 559.246,273.924 546,273.924L434,273.924C420.754,273.924 410,282.446 410,292.943L410,330.981C410,341.478 420.754,350 434,350L546,350C559.246,350 570,341.478 570,330.981L570,292.943Z" style="fill:rgb(216,106,141);"/>
        </g>
        <g transform="matrix(0.625,0,0,0.657239,163.75,119.966)">
            <path d="M570,292.943C570,282.446 561.038,273.924 550,273.924L430,273.924C418.962,273.924 410,282.446 410,292.943L410,330.981C410,341.478 418.962,350 430,350L550,350C561.038,350 570,341.478 570,330.981L570,292.943Z" style="fill:rgb(255,200,188);"/>
        </g>
    </g>
</svg>
