<?xml version="1.0" encoding="UTF-8" standalone="no"?>
<!DOCTYPE svg PUBLIC "-//W3C//DTD SVG 1.1//EN" "http://www.w3.org/Graphics/SVG/1.1/DTD/svg11.dtd">
<svg width="100%" height="100%" viewBox="0 0 200 600" version="1.1" xmlns="http://www.w3.org/2000/svg" xmlns:xlink="http://www.w3.org/1999/xlink" xml:space="preserve" xmlns:serif="http://www.serif.com/" style="fill-rule:evenodd;clip-rule:evenodd;stroke-linejoin:round;stroke-miterlimit:2;">
    <g transform="matrix(1,0,0,1,-400,-300)">
        <g>
            <g transform="matrix(0.15,0,0,1.08108,419,-43.2432)">
                <path d="M740,410L340,410L340,576.741C340,588.91 336.873,601.075 330.624,613.212C319.962,633.924 302.365,668.106 289.482,693.131C278.759,713.961 249.253,734.523 201.657,754.335C170.074,767.481 140,780 140,780C140,780 139.998,780.001 139.994,780.002C111.435,787.927 114.487,797.338 148.06,804.875C181.632,812.412 240.937,817 304.795,817C451.677,817 628.323,817 775.205,817C839.063,817 898.368,812.412 931.94,804.875C965.513,797.338 968.565,787.927 940.006,780.002C940.002,780.001 940,780 940,780C940,780 909.926,767.481 878.343,754.335C830.747,734.523 801.241,713.961 790.518,693.131C777.635,668.106 760.038,633.924 749.376,613.212C743.127,601.075 740,588.91 740,576.741C740,530.059 740,410 740,410Z" style="fill:white;"/>
            </g>
            <g transform="matrix(1.28238,0.245521,-0.121894,0.636666,33.0683,129.787)">
                <path d="M420,670C420,658.962 415.551,650 410.071,650L359.929,650C354.449,650 350,658.962 350,670C350,681.038 354.449,690 359.929,690L410.071,690C415.551,690 420,681.038 420,670Z" style="fill:white;"/>
            </g>
        </g>
    </g>
</svg>
