<?xml version="1.0" encoding="UTF-8" standalone="no"?>
<!DOCTYPE svg PUBLIC "-//W3C//DTD SVG 1.1//EN" "http://www.w3.org/Graphics/SVG/1.1/DTD/svg11.dtd">
<svg width="100%" height="100%" viewBox="0 0 400 400" version="1.1" xmlns="http://www.w3.org/2000/svg" xmlns:xlink="http://www.w3.org/1999/xlink" xml:space="preserve" xmlns:serif="http://www.serif.com/" style="fill-rule:evenodd;clip-rule:evenodd;stroke-linejoin:round;stroke-miterlimit:2;">
    <g transform="matrix(1,0,0,1,-300,-200)">
        <g>
            <g transform="matrix(0.888889,0,0,0.888889,82.2222,115.556)">
                <circle cx="470" cy="320" r="180" style="fill:white;"/>
            </g>
            <g transform="matrix(0.388889,0,0,0.388889,217.222,375.556)">
                <circle cx="470" cy="320" r="180" style="fill:white;"/>
            </g>
            <g transform="matrix(0.388889,0,0,0.388889,417.222,375.556)">
                <circle cx="470" cy="320" r="180" style="fill:white;"/>
            </g>
            <g transform="matrix(0.388889,0,0,0.388889,417.222,175.556)">
                <circle cx="470" cy="320" r="180" style="fill:white;"/>
            </g>
            <g transform="matrix(0.388889,0,0,0.388889,317.222,145.556)">
                <circle cx="470" cy="320" r="180" style="fill:white;"/>
            </g>
            <g transform="matrix(0.388889,0,0,0.388889,317.222,405.556)">
                <circle cx="470" cy="320" r="180" style="fill:white;"/>
            </g>
            <g transform="matrix(0.388889,0,0,0.388889,217.222,175.556)">
                <circle cx="470" cy="320" r="180" style="fill:white;"/>
            </g>
            <g transform="matrix(0.388889,0,0,0.388889,187.222,275.556)">
                <circle cx="470" cy="320" r="180" style="fill:white;"/>
            </g>
            <g transform="matrix(0.388889,0,0,0.388889,447.222,275.556)">
                <circle cx="470" cy="320" r="180" style="fill:white;"/>
            </g>
        </g>
    </g>
</svg>
